<svg id="圖層_1" data-name="圖層 1" xmlns="http://www.w3.org/2000/svg" viewBox="0 0 192 165"><defs><style>.cls-1{fill:#fff;}.cls-2{fill:#56c4c5;}</style></defs><circle class="cls-1" cx="98.52" cy="78.22" r="74.34"/><path class="cls-2" d="M84,113.65c-5.41,0-10.46-.14-15.5,0s-9.77-.55-13.29-4.72A18,18,0,0,1,51,98a2.48,2.48,0,0,0-2-2.62A6.47,6.47,0,0,1,44.49,89c-.06-4.31,0-8.62,0-12.94A6.44,6.44,0,0,1,49,69.57c1.67-.59,2-1.5,2-3.11a137.14,137.14,0,0,1,.49-15.17,14.65,14.65,0,0,1,15-12.69c20.75.31,41.52.35,62.27,0a15,15,0,0,1,15.46,14c.33,4.87.24,9.78.24,14.67,0,1.56.23,2.5,2,3,3.11.89,4.67,3.28,4.7,6.56,0,4.31,0,8.63,0,12.94,0,3-1.41,5.41-4.32,6.3-2.14.65-2.41,2-2.68,3.81-.94,6.36-4,11.2-10.45,13.2a12.62,12.62,0,0,1-3.67.46c-6.48,0-13-.09-19.43.1a11.57,11.57,0,0,0-5.48,1.68c-4.77,3-9.36,6.28-14,9.5-1.81,1.26-3.69,2.13-5.69.75a5.58,5.58,0,0,1-2.33-5.86C83.41,117.82,83.65,115.89,84,113.65ZM56,65.08c0,11.27-.18,22.13.07,33,.15,6.92,4.4,10.65,11.4,10.67H84.92c4.47,0,5,.72,4.23,5.15-.37,2.09-.57,4.21-.92,6.91,5.35-3.68,10-7.06,14.8-10.09a12.76,12.76,0,0,1,6-1.89c6.54-.24,13.11,0,19.66-.1,5.52,0,8.8-2.48,10.25-7.62a15.71,15.71,0,0,0,.49-3.92V67.08a19.17,19.17,0,0,0-.25-2H121.37c-7.09,0-13.55-1.81-18.52-7-2.46-2.58-4.24-5.8-6.3-8.7A24.22,24.22,0,0,1,84.69,62.45a27.24,27.24,0,0,1-12.53,2.62C66.87,65.1,61.58,65.08,56,65.08Zm-5.3,26V73.65c-2.58,1.79-2.54,15.89,0,17.46Zm93.94-16.53V92.06c2.19-.94,2.2-1,2.21-4.16,0-12.36,0-12.36-2.21-13.32Z"/><path class="cls-2" d="M98,99.57c-9.15-.22-15.78-5.13-17.85-13.48a4.07,4.07,0,0,1-.27-2.18c.34-.87,1-2.08,1.74-2.19s1.81.79,2.33,1.54.49,1.9.8,2.84c1.88,5.65,6.48,8.78,13,8.83s11.22-3,13.22-8.55a17,17,0,0,0,.78-2.61c.28-1.56,1.18-2.66,2.66-2.06a3.37,3.37,0,0,1,1.54,2.8C114.83,90.9,111.44,95.68,105.2,98A57,57,0,0,1,98,99.57Z"/></svg>